<svg xmlns="http://www.w3.org/2000/svg" xmlns:xlink="http://www.w3.org/1999/xlink" width="304.8" height="304.8"><g opacity=".5"><defs><path id="A" d="M0 0h304.8v304.8H0z"/><path  d="M61.8-71.7v.2c-.1.1-.1.1-.2.1-.1.1-.1.3-.1.4-.2.1 0 .2 0 .3v.2c0 .1 0 .3.1.4.1.2.3.4.4.5.2.1.4.6.6.6s.4-.1.5-.1c.2 0 .4 0 .6-.1s.1-.3.3-.5c.1-.1.3 0 .4-.1.2-.1.3-.3.4-.5v-.2c0-.1.1-.2.1-.3s-.1-.1-.1-.2v-.3c0-.2 0-.4-.1-.5-.4-.7-1.2-.9-2-.8-.2 0-.3.1-.4.2-.2.1-.1.2-.3.2-.1 0-.2.1-.2.2v.3c0 .1 0 .1 0 0"/><path  d="M69.4-64v.2c-.1.1-.1.1-.2.1-.1.1-.1.3-.1.4-.2.1 0 .2 0 .3v.2c0 .1 0 .3.1.4.1.2.3.4.4.5.2.1.4.6.6.6s.4-.1.5-.1c.2 0 .4 0 .6-.1s.1-.3.3-.5c.1-.1.3 0 .4-.1.2-.1.3-.3.4-.5v-.2c0-.1.1-.2.1-.3s-.1-.1-.1-.2v-.3c0-.2 0-.4-.1-.5-.4-.7-1.2-.9-2-.8-.2 0-.3.1-.4.2-.2.1-.1.2-.3.2-.1 0-.2.1-.2.2v.3"/><path  d="M8.2-56.3v.2c-.1 0-.2 0-.2.1-.1.1-.1.3-.1.4-.2.1 0 .2 0 .3v.2c0 .1 0 .3.1.4.1.2.3.4.4.5.2.1.4.6.6.6s.4-.1.5-.1c.2 0 .4 0 .6-.1s.1-.3.3-.5c.1-.1.3 0 .4-.1.2-.1.3-.3.4-.5v-.2c0-.1.1-.2.1-.3s-.1-.1-.1-.2v-.3c0-.2 0-.4-.1-.5-.4-.7-1.2-.9-2-.8-.2 0-.3.1-.4.2-.2.1-.1.2-.3.2-.1 0-.2.1-.2.2v.3c-.1 0-.1 0 0 0"/><path  d="M69.4-18.1v.2c-.1.1-.1.1-.2.1-.1.1-.1.3-.1.4-.2.1 0 .2 0 .3v.2c0 .1 0 .3.1.4.1.2.3.4.4.5.2.1.4.6.6.6s.4-.1.5-.1c.2 0 .4 0 .6-.1s.1-.3.3-.5c.1-.1.3 0 .4-.1.2-.1.3-.3.4-.5v-.2c0-.1.1-.2.1-.3s-.1-.1-.1-.2v-.3c0-.2 0-.4-.1-.5-.4-.7-1.2-.9-2-.8-.2 0-.3.1-.4.2-.2.1-.1.2-.3.2-.1 0-.2.1-.2.2v.3c0 .1 0 0 0 0"/><path  d="M61.8-10.4v.2c-.1.1-.1.1-.2.1-.1.1-.1.3-.1.4-.2.1 0 .2 0 .3v.2c0 .1 0 .3.1.4.1.2.3.4.4.5.2.1.4.6.6.6s.4-.1.5-.1c.2 0 .4 0 .6-.1s.1-.3.3-.4c.1-.1.3 0 .4-.1.2-.1.3-.3.4-.5v-.2c0-.1.1-.2.1-.3s-.1-.1-.1-.2v-.3c0-.2 0-.4-.1-.5-.4-.7-1.2-.9-2-.8-.2 0-.3.1-.4.2-.2.1-.1.2-.3.2-.1 0-.2.1-.2.2v.2"/><path  d="M61.8-2.8v.2c-.1.1-.1.1-.2.1-.1.1-.1.3-.1.4-.2.1 0 .2 0 .3v.2c0 .1 0 .3.1.4 0 .2.2.4.4.5s.4.6.6.6.4-.1.5-.1c.2 0 .4 0 .6-.1s.1-.3.3-.5c.1-.1.3 0 .4-.1.2-.1.3-.3.4-.5v-.2c0-.1.1-.2.1-.3s-.1-.1-.1-.2v-.3c0-.2 0-.4-.1-.5-.4-.7-1.2-.9-2-.8-.2 0-.3.1-.4.2-.2.1-.1.2-.3.2-.1 0-.2.1-.2.2v.3c0 .1 0 0 0 0"/><path  d="M31.1-2.8v.2c-.1.1-.1.1-.2.1-.1.1-.1.3-.1.4-.2.1 0 .2 0 .3v.2c0 .1 0 .3.1.4.1.2.2.4.4.5s.4.6.6.6.4-.1.5-.1c.2 0 .4 0 .6-.1s.1-.3.3-.5c.1-.1.3 0 .4-.1.2-.1.3-.3.4-.5v-.2c0-.1.1-.2.1-.3s-.1-.1-.1-.2v-.3c0-.2 0-.4-.1-.5-.4-.7-1.2-.9-2-.8-.2 0-.3.1-.4.2-.2.1-.1.2-.3.2-.1 0-.2.1-.2.2v.3c0 .1 0 0 0 0"/></defs><clipPath id="I"><use xlink:href="#A"/></clipPath><g opacity=".75" clip-path="url(#I)"><defs><path id="J" d="M0 0h304.8v304.8H0z"/></defs><clipPath id="K"><use xlink:href="#J"/></clipPath><path clip-path="url(#K)" fill="#e5e5e5" d="M2.4 152.4c0 82.8 67.1 150 150 150s150-67.1 150-150-67.1-150-150-150-150 67.2-150 150"/><circle clip-path="url(#K)" fill="none" stroke="#fff" stroke-width="4.887" cx="152.4" cy="152.4" r="150"/></g><path clip-path="url(#I)" fill="#4984cb" d="M203 121.7c-6.1-4.4-20.7-6.2-21.2-4-.2 1 7.8 11.5 7.8 11.5s-8.2-7.8-12.2-10.5c-5.8-3.9-22.2-2-21 1.3 2.1 5.8 9.1 18 9.1 18s8.3 8.7-8.5-12.6c-7.1-9-17.1-7.9-28.5-4.4-4.2 1.3 5.1 15.2 8.3 20-10.8-13.7-44.4-57.5-49.6-60.4-5.4-3-14.9 8.1-4.4 24.4l36.2 56.2c2.3 3.5 5.9 15.7 5.9 15.7.7 10.8-4.3 14.9-11 7.1-6.9-8.1-6-16.5-13.7-23.4-4.6-4.1-16.2-4-18-.1-2.9 6.1 14 46.8 18.7 51.8 17.2 18.3 37.8 25.3 62.4 33.3 2.6.8 5.2 1.2 7.8.3l50.5-18.3c2.7-1 4.9-3.1 6.1-5.7 3-6.9 7.7-21.6 4.1-38.9-5-24.3-9-47-28.8-61.3"/></g><g opacity=".5"><defs><path id="L" d="M47.8 58.3h185.4v188.2H47.8z"/></defs><clipPath id="M"><use xlink:href="#L"/></clipPath><path clip-path="url(#M)" d="M119.6 219.8c-25-8.4-38.6-1.4-45.5-4.8-4-1.9-4.7-10.9 3.5-17.4 7.9-6.3 15.4-6 28.2-7.7 13.6-1.7 24.7-1.6 24.4-7.4 0 0-4.8-15.4-7-18.8-3.7-5.7-33.8-41.7-45.2-59.4-10-15.5-1.8-24.3 3.3-21.4 11 6.2 63.3 66.9 63.3 66.9l-39.8-63.9c-9.5-15.5 1.1-26.9 4.6-22.6 14.6 18 58.3 78.1 58.3 78.1l-33.2-62.9c-5.8-12.1.9-23.3 6.5-19.5 3.8 2.6 50 74 50 74s-19.4-39.5-23.7-50.4c-3.8-9.5 1.6-22.3 7.3-15.6 4.7 5.5 39.5 68.1 43 73.7 7.7 12.5 11 26.9 14.3 43 3.4 16.7-1.5 31.7-4.4 38.3-1.1 2.6-3.2 4.5-5.8 5.5l-51 18.5c-2.4.9-5 .5-7.5-.2-5.9-2-16.7-16.9-43.6-26M62.8 114.1l3.3 1.3a99.22 99.22 0 0 1-2.9-10.1c-3.2 1.6-6.4 3.3-9.5 5.1 1.1.4 2.2.9 3.3 1.3-10.6 26.6-12.1 55.9-4.3 83.4-1.1.3-2.3.6-3.4 1 2.9 2.2 5.9 4.2 8.9 6.1 1.2-3.4 2.5-6.6 3.9-9.7l-3.4 1c-7.4-26.2-6-54.1 4.1-79.4" fill="#4984cb"/></g></svg>